<?xml version="1.0" encoding="UTF-8"?>
<!-- Generator: Adobe Illustrator 24.3.0, SVG Export Plug-In . SVG Version: 6.00 Build 0)  -->
<svg xmlns="http://www.w3.org/2000/svg" xmlns:xlink="http://www.w3.org/1999/xlink" version="1.1" id="Laag_1" x="0px" y="0px" viewBox="0 0 533 70" style="enable-background:new 0 0 533 70;" xml:space="preserve">
<style type="text/css">
	.st0{fill-rule:evenodd;clip-rule:evenodd;fill:#FFFFFF;}
</style>
<path id="Fill-1" class="st0" d="M415.6,70h1.9V0h-1.9V70z M513.4,53.8c-0.2,0.4-0.5,0.9-1.1,0.9l0-0.3c0.4-0.1,0.6-0.3,0.7-0.6  l0-0.1H513c-0.1,0-0.1,0-0.2-0.1l-0.9-2.3h0.5l0.6,1.8c0,0.1,0.1,0.2,0.1,0.3h0.1c0-0.1,0.1-0.2,0.1-0.3l0.6-1.8h0.5L513.4,53.8z   M509.8,53.3c0.2,0.1,0.5,0.1,0.7,0.1c0.5,0,0.6-0.2,0.7-0.9c0-0.7-0.1-0.9-0.6-0.9c-0.3,0-0.5,0.1-0.7,0.4V53.3z M509.8,51.1  c0,0.2,0,0.4,0,0.5c0.3-0.3,0.6-0.4,0.9-0.4c0.6,0,0.9,0.4,0.9,1.3c0,0.8-0.2,1.3-1.1,1.3c-0.3,0-0.8-0.1-1.1-0.2v-3.4h0.4V51.1z   M523.9,51.5c0,0,0,0.9,0.9,0.9c0.1,0,0.5,0,0.5,0s0.7-0.1,0.8-0.8c0-0.1,0-1.3,0-1.3s0.1-1-0.8-1c-0.1,0-0.7,0-0.7,0  s-0.6,0-0.7,0.8c0,0.1,0,0.1,0,0.1V51.5z M522.4,49.6c0,0,0-0.1,0-0.2c0.3-1.6,1.8-1.5,1.8-1.5s1.3,0,1.6,0c2,0.1,1.8,1.8,1.8,1.8  s0,2.2,0,2.3c-0.2,1.4-1.8,1.5-1.8,1.5s-1.1,0-1.2,0c-2,0-2.1-1.6-2.1-1.6V49.6z M520.3,53.6v-4.4l-0.2,0c-0.4-0.1-0.8,0.7-0.8,0.7  l-1.6,3.6h-1.6c0,0,1.7-3.6,1.8-3.8c0.9-2,1.8-1.8,1.8-1.8h2v5.6L520.3,53.6z M531.4,50c0,0,0.2-0.8-0.8-0.7c-0.2,0-0.6,0-0.6,0  s-0.5,0.1-0.5,0.8c0,0.6,0,1.7,0,1.7s0,0.6,0.7,0.6c0.2,0,0.7,0,0.7,0s0.3,0,0.4-0.4c0-0.3,0-0.5,0-0.5h1.6v0.7c0,0-0.1,1.3-1.6,1.4  h-1.5c0,0-1.6,0-1.8-1.6c0-0.2,0-2.5,0-2.5s0-1.3,1.7-1.5c0.5,0,1.8,0,1.8,0s1.2,0,1.4,1.2C533,49.5,533,50,533,50H531.4z   M532.9,26.7v16.5h-3.7l-9.3-11.1v11.1h-3.6V26.7h3.7l9.2,11v-11H532.9z M499.1,39.6h9.4v-9.4h-9.4V39.6z M498.9,26.7  c-0.9,0-1.8,0.3-2.4,1c-0.7,0.7-1,1.5-1,2.4v9.7c0,0.9,0.3,1.8,1,2.4c0.7,0.7,1.5,1,2.4,1h9.7c0.9,0,1.7-0.3,2.4-1  c0.7-0.7,1-1.5,1-2.4v-9.7c0-0.9-0.3-1.7-1-2.4c-0.7-0.7-1.5-1-2.4-1H498.9z M490.3,27.7c0.7,0.7,1,1.5,1,2.4v1.6h-3.6v-1.4h-9.4  v9.4h9.4v-2.5h-3.6v-3.6h7.2v6.2c0,0.9-0.3,1.7-1,2.4c-0.7,0.7-1.5,1-2.4,1h-9.7c-0.9,0-1.8-0.3-2.4-1c-0.7-0.7-1-1.5-1-2.4v-9.7  c0-0.9,0.3-1.8,1-2.4s1.5-1,2.4-1h9.7C488.8,26.7,489.6,27,490.3,27.7z M457.4,34.3h9.4v-4h-9.4V34.3z M457.3,26.7  c-0.9,0-1.8,0.3-2.4,1c-0.7,0.7-1,1.5-1,2.4v13.1h3.6v-5.3h9.4v5.3h3.6V30.1c0-0.9-0.3-1.7-1-2.4c-0.7-0.7-1.5-1-2.4-1H457.3z   M52,39.4c0,0.4-0.3,0.7-0.7,0.7H34c-0.4,0-0.7-0.3-0.7-0.7v-8.7c0-0.4,0.3-0.7,0.7-0.7h17.3c0.4,0,0.7,0.3,0.7,0.7V39.4z   M32.8,26.7c-1.8,0-3.3,1.5-3.3,3.3V40c0,1.9,1.5,3.3,3.3,3.3h19.8c1.8,0,3.3-1.5,3.3-3.3V30c0-1.9-1.5-3.3-3.3-3.3H32.8z   M375.3,26.7h3.8v16.6h-3.8l-18.2-12.5v12.5h-3.8V26.7h3.8l18.2,12.5V26.7z M348.6,26.7v3.2h-21.4c-0.4,0-0.7,0.3-0.7,0.7v8.7  c0,0.4,0.3,0.7,0.7,0.7h16.8c0.4,0,0.7-0.3,0.7-0.7v-2.7h-8.7v-3.2h12.6V40c0,1.9-1.5,3.3-3.3,3.3H326c-1.8,0-3.3-1.5-3.3-3.3V30  c0-1.9,1.5-3.3,3.3-3.3H348.6z M314.2,43.3h3.8V26.7h-3.8V43.3z M309.3,40c0,1.9-1.5,3.3-3.3,3.3h-22.6v-3.2h21.4  c0.4,0,0.7-0.3,0.7-0.7v-2c0-0.4-0.3-0.7-0.7-0.7h-18.1c-1.8,0-3.3-1.5-3.3-3.3V30c0-1.9,1.5-3.3,3.3-3.3h22.1v3.2H288  c-0.4,0-0.7,0.3-0.7,0.7v2c0,0.4,0.3,0.7,0.7,0.7H306c1.8,0,3.3,1.5,3.3,3.3V40z M253.2,26.7h25.9v3.2H257v3.5h21.6v3.2H257v3.5  h22.1v3.2h-25.9V26.7z M244.8,39.4c0,0.4-0.3,0.7-0.7,0.7h-17.5V29.9h17.5c0.4,0,0.7,0.3,0.7,0.7V39.4z M222.8,26.7v16.6h22.6  c1.8,0,3.3-1.5,3.3-3.3V29.9c0-1.8-1.5-3.2-3.3-3.2H222.8z M179.3,26.7h25.9v3.2h-22.1v3.5h21.6v3.2h-21.6v3.5h22.1v3.2h-25.9V26.7z   M170.9,26.7h3.8v16.6h-3.8v-6.7h-17.2v6.7h-3.8V26.7h3.8v6.7h17.2V26.7z M145.8,26.7v3.2h-20.3c-0.4,0-0.7,0.3-0.7,0.7v8.7  c0,0.4,0.3,0.7,0.7,0.7h20.3v3.2h-21.6c-1.8,0-3.3-1.5-3.3-3.3V30c0-1.9,1.5-3.3,3.3-3.3H145.8z M116.5,40c0,1.9-1.5,3.3-3.3,3.3  H90.6v-3.2h21.4c0.4,0,0.7-0.3,0.7-0.7v-2c0-0.4-0.3-0.7-0.7-0.7H93.9c-1.8,0-3.3-1.5-3.3-3.3V30c0-1.9,1.5-3.3,3.3-3.3H116v3.2  H95.1c-0.4,0-0.7,0.3-0.7,0.7v2c0,0.4,0.3,0.7,0.7,0.7h18.1c1.8,0,3.3,1.5,3.3,3.3V40z M82.2,32.7c0,0.4-0.3,0.7-0.7,0.7H64.2v-3.5  h17.3c0.4,0,0.7,0.3,0.7,0.7V32.7z M86,33.3V30c0-1.9-1.5-3.3-3.3-3.3H60.3v16.6h3.8v-6.7h13.5c3.3,0,4.9,1.8,4.9,5.5v1.2h3.8v-1.5  c0-2.6-0.7-4.6-2.4-5.8C85.2,35.6,86,34.6,86,33.3z M22.1,32.7c0,0.4-0.3,0.7-0.7,0.7H3.8v-3.5h17.5c0.4,0,0.7,0.3,0.7,0.7V32.7z   M0,26.7v16.6h3.8v-6.7h18.8c1.8,0,3.3-1.5,3.3-3.3V30c0-1.9-1.5-3.3-3.3-3.3H0z"></path>
</svg>
